# xmcd
#
# Track frame offsets:
#	150
#	34473
#	57562
#	82230
#	110474
#	158148
#	198309
#	244797
#	278163
#	330017
#
# Disc length: 4606 seconds
#
# Revision: 0
# Processed by: cddbd v1.5.2PL0 Copyright (c) Steve Scherf et al.
# Submitted via: EasyCDDAExtractor 9.0.0.1
#
DISCID=8911fc0a
DTITLE=Black Sabbath - Memorial Stadium Seattle 19-07-80
DYEAR=1980
DGENRE=Hard Rock
TTITLE0=War Pigs
TTITLE1=Neon Knights
TTITLE2=NIB
TTITLE3=Children Of The Sea
TTITLE4=Sweet Leaf (Incl Drum Solo)
TTITLE5=Black Sabbath
TTITLE6=Heaven And Hell
TTITLE7=Iron Man
TTITLE8=Guitar Solo
TTITLE9=Die Young
EXTD=
EXTT0=
EXTT1=
EXTT2=
EXTT3=
EXTT4=
EXTT5=
EXTT6=
EXTT7=
EXTT8=
EXTT9=
PLAYORDER=
